<svg width="24" height="24" viewBox="0 0 24 24" fill="none" xmlns="http://www.w3.org/2000/svg">
<path d="M11.8244 1C6.96 1 3 4.96 3 9.82444C3 10.3744 3.04889 10.9367 3.15889 11.4744C3.15889 11.5111 3.18333 11.6089 3.22 11.7678C3.35444 12.3667 3.55 12.9533 3.80667 13.5033C4.76 15.74 6.85 19.1744 11.4333 22.8533C11.5433 22.9511 11.69 23 11.8244 23C11.9589 23 12.1056 22.9511 12.2156 22.8656C16.7989 19.1867 18.8889 15.7522 19.8422 13.5156C20.0989 12.9533 20.2944 12.3789 20.4289 11.78C20.4656 11.6089 20.49 11.5111 20.49 11.4867C20.5878 10.9367 20.6489 10.3867 20.6489 9.83667C20.6367 4.96 16.6767 1 11.8244 1ZM19.2556 11.2544C19.2556 11.2667 19.2556 11.2667 19.2556 11.2789C19.2556 11.3033 19.2311 11.3767 19.2189 11.4744V11.4867C19.1089 12 18.9378 12.5011 18.7056 12.99C18.7056 12.99 18.7056 13.0022 18.6933 13.0144C17.8256 15.0556 15.9433 18.1722 11.8244 21.57C7.70555 18.1722 5.82333 15.0556 4.95556 13.0144C4.95556 13.0144 4.95556 13.0022 4.94333 12.99C4.72333 12.5133 4.55222 12.0122 4.43 11.4867C4.40556 11.3767 4.39333 11.3033 4.39333 11.2789C4.39333 11.2667 4.39333 11.2544 4.39333 11.2422C4.29556 10.7778 4.24667 10.3011 4.24667 9.81222C4.24667 5.63222 7.64444 2.23444 11.8244 2.23444C15.9922 2.23444 19.4022 5.63222 19.4022 9.81222C19.39 10.3011 19.3411 10.79 19.2556 11.2544Z" fill="#6D4030"/>
<path d="M11.8243 4.31226C8.74434 4.31226 6.22656 6.83003 6.22656 9.91003C6.22656 12.99 8.74434 15.5078 11.8243 15.5078C14.9043 15.5078 17.4221 12.99 17.4221 9.91003C17.4221 6.83003 14.9043 4.31226 11.8243 4.31226ZM11.8243 14.2734C9.41656 14.2734 7.47323 12.3178 7.47323 9.92226C7.47323 7.5267 9.42878 5.57114 11.8243 5.57114C14.2199 5.57114 16.1755 7.5267 16.1755 9.92226C16.1755 12.3178 14.2199 14.2734 11.8243 14.2734Z" fill="#6D4030"/>
</svg>
