<svg width="24" height="24" viewBox="0 0 24 24" fill="none" xmlns="http://www.w3.org/2000/svg">
<path d="M19.5556 4H4.44444C3.1 4 2 5.1 2 6.44444V16.7778C2 18.1222 3.1 19.2222 4.44444 19.2222H19.5556C20.9 19.2222 22 18.1222 22 16.7778V6.44444C22 5.1 20.9111 4 19.5556 4ZM20.8889 16.7778C20.8889 17.5111 20.2889 18.1111 19.5556 18.1111H4.44444C3.71111 18.1111 3.11111 17.5111 3.11111 16.7778V6.44444C3.11111 5.71111 3.71111 5.11111 4.44444 5.11111H19.5556C20.2889 5.11111 20.8889 5.71111 20.8889 6.44444V16.7778Z" fill="#6D4030"/>
<path d="M14.6113 11.4777L19.5002 7.08884C19.7224 6.87773 19.7446 6.53328 19.5446 6.29995C19.3335 6.07773 18.9891 6.0555 18.7557 6.2555L12.0113 12.3222L10.6891 11.1444L10.678 11.1333C10.6557 11.0999 10.6335 11.0777 10.6002 11.0555L5.24462 6.2555C5.01129 6.0555 4.65573 6.07773 4.44462 6.29995C4.24462 6.53328 4.26685 6.88884 4.50018 7.09995L9.44462 11.5222L4.51129 16.1333C4.28907 16.3444 4.27796 16.6999 4.48907 16.9222C4.60018 17.0333 4.74462 17.0999 4.90018 17.0999C5.03351 17.0999 5.17796 17.0555 5.27796 16.9555L10.278 12.2777L11.6335 13.4888C11.7446 13.5888 11.878 13.6333 12.0113 13.6333C12.1446 13.6333 12.278 13.5888 12.3891 13.4888L13.7891 12.2444L18.7668 16.9666C18.878 17.0666 19.0113 17.1222 19.1557 17.1222C19.3002 17.1222 19.4446 17.0666 19.5557 16.9444C19.7668 16.7222 19.7557 16.3666 19.5335 16.1555L14.6113 11.4777Z" fill="#6D4030"/>
</svg>
