<svg width="24" height="24" viewBox="0 0 24 24" fill="none" xmlns="http://www.w3.org/2000/svg">
<path d="M17.7835 14.3976C17.3705 13.9734 16.8793 13.739 16.3546 13.739C15.8299 13.739 15.3387 13.9622 14.9145 14.3864L13.586 15.7149C13.4744 15.6591 13.3627 15.6033 13.2623 15.5475C13.106 15.4693 12.972 15.4023 12.8492 15.3242C11.5989 14.5316 10.4602 13.4934 9.37731 12.1537C8.85262 11.4839 8.49538 10.9257 8.23862 10.3564C8.58469 10.0438 8.90844 9.70888 9.22102 9.3963C9.34382 9.2735 9.45545 9.1507 9.57825 9.03906C10.4602 8.15714 10.4602 7.00728 9.57825 6.11419L8.40607 4.9755C8.28327 4.84154 8.14931 4.70757 8.01535 4.57361C7.75858 4.30568 7.50182 4.03776 7.22273 3.78099C6.80967 3.3791 6.32964 3.16699 5.80495 3.16699C5.29142 3.16699 4.78906 3.3791 4.36484 3.79216L2.92473 5.24343C2.38887 5.77928 2.08746 6.43794 2.02047 7.20823C1.90884 8.43623 2.27724 9.58608 2.55633 10.334C3.23731 12.176 4.26436 13.8841 5.78262 15.7149C7.63578 17.9253 9.85735 19.6668 12.3915 20.8948C13.3627 21.3526 14.6577 21.8996 16.109 21.9889C16.1983 21.9889 16.2876 22 16.3769 22C17.3481 22 18.1743 21.654 18.8106 20.9507C18.8106 20.9395 18.8217 20.9395 18.8329 20.9283C19.0562 20.6604 19.3018 20.426 19.5697 20.1692C19.7483 19.9906 19.9381 19.812 20.1167 19.6222C20.5298 19.1868 20.7531 18.6844 20.7531 18.1598C20.7531 17.6351 20.5298 17.1327 20.1056 16.7085L17.7835 14.3976ZM19.3018 18.8407C19.2906 18.8407 19.2906 18.8407 19.3018 18.8407C19.1343 19.0194 18.9669 19.1756 18.7883 19.3543C18.5092 19.611 18.2301 19.8901 17.9733 20.2027C17.5491 20.6604 17.0467 20.8725 16.3881 20.8725C16.3211 20.8725 16.2541 20.8725 16.1983 20.8725C14.948 20.7944 13.7758 20.3032 12.905 19.8901C10.516 18.7291 8.41724 17.088 6.67571 15.0116C5.2356 13.2812 4.27553 11.6737 3.6392 9.95448C3.23731 8.88277 3.09218 8.06783 3.15917 7.29754C3.20382 6.80634 3.3936 6.39328 3.73967 6.04721L5.17978 4.6071C5.38073 4.40616 5.604 4.30568 5.81611 4.30568C6.08404 4.30568 6.29615 4.46197 6.43011 4.59594L6.44127 4.6071C6.69804 4.8527 6.94364 5.0983 7.2004 5.36623C7.33436 5.50019 7.46833 5.63416 7.60229 5.77928L8.75215 6.92914C9.19869 7.37568 9.19869 7.78874 8.75215 8.23528C8.64051 8.35808 8.51771 8.48088 8.39491 8.60368C8.03767 8.96092 7.70276 9.29583 7.33436 9.63074C7.33436 9.6419 7.3232 9.6419 7.31204 9.65306C6.9548 10.0103 7.02178 10.3675 7.09993 10.6131L7.11109 10.6466C7.41251 11.3723 7.83673 12.0532 8.47305 12.8682C9.63407 14.3083 10.8621 15.4247 12.224 16.2731C12.4027 16.3847 12.5701 16.474 12.7487 16.5522C12.905 16.6303 13.039 16.6973 13.1618 16.7755C13.1841 16.7866 13.1953 16.7978 13.2176 16.809C13.3627 16.8759 13.4967 16.9094 13.6307 16.9094C13.9767 16.9094 14.2 16.6862 14.267 16.6192L15.7071 15.1791C15.8522 15.0339 16.0755 14.8665 16.3434 14.8665C16.6002 14.8665 16.8235 15.0339 16.9463 15.1791L19.2795 17.5123C19.726 17.9476 19.726 18.3942 19.3018 18.8407Z" fill="#6D4030"/>
<path d="M12.7932 6.76153C13.8984 6.95131 14.9031 7.476 15.7069 8.26862C16.5107 9.0724 17.0242 10.0771 17.214 11.1823C17.2586 11.4614 17.5042 11.6512 17.7722 11.6512C17.8056 11.6512 17.8391 11.6512 17.8726 11.64C18.1852 11.5842 18.3862 11.294 18.3415 10.9814C18.1182 9.64175 17.4819 8.42491 16.5107 7.45367C15.5506 6.50477 14.3226 5.86844 12.9941 5.64517C12.6815 5.58935 12.3801 5.80146 12.3355 6.10287C12.2797 6.41546 12.4806 6.71687 12.7932 6.76153Z" fill="#6D4030"/>
<path d="M21.9586 10.8252C21.579 8.62597 20.5408 6.61651 18.9444 5.02011C17.348 3.42371 15.3497 2.3855 13.1393 2.00593C12.8379 1.96128 12.5476 2.17339 12.4918 2.48597C12.436 2.78739 12.6481 3.0888 12.9607 3.13346C14.9255 3.46837 16.7228 4.39495 18.1518 5.82389C19.5807 7.25284 20.5073 9.03902 20.8422 11.015C20.8869 11.2941 21.1325 11.4839 21.4004 11.4839C21.4339 11.4839 21.4674 11.4839 21.5009 11.4727C21.8023 11.428 22.0144 11.1378 21.9586 10.8252Z" fill="#6D4030"/>
</svg>
